<mxfile host="65bd71144e">
    <diagram id="7UswHcwsxnwZECBtdR7g" name="第1頁">
        <mxGraphModel dx="673" dy="427" grid="0" gridSize="10" guides="1" tooltips="1" connect="1" arrows="1" fold="1" page="1" pageScale="1" pageWidth="827" pageHeight="1169" math="0" shadow="0">
            <root>
                <mxCell id="0"/>
                <mxCell id="1" parent="0"/>
                <mxCell id="3" value="&lt;font style=&quot;font-size: 15px;&quot;&gt;簽收包裹信件&lt;br&gt;&lt;/font&gt;" style="rounded=0;whiteSpace=wrap;html=1;fontSize=18;fillColor=none;" vertex="1" parent="1">
                    <mxGeometry x="83" y="169" width="132" height="106" as="geometry"/>
                </mxCell>
                <mxCell id="2" value="&lt;font style=&quot;font-size: 18px;&quot;&gt;警衛&lt;/font&gt;" style="rounded=0;whiteSpace=wrap;html=1;" vertex="1" parent="1">
                    <mxGeometry x="83" y="130" width="132" height="39" as="geometry"/>
                </mxCell>
                <mxCell id="5" value="&lt;font style=&quot;font-size: 15px;&quot;&gt;姓名&lt;br&gt;手機號碼&lt;br&gt;幾號幾樓&lt;br&gt;&lt;/font&gt;" style="rounded=0;whiteSpace=wrap;html=1;fontSize=18;fillColor=none;" vertex="1" parent="1">
                    <mxGeometry x="319" y="167" width="135" height="108" as="geometry"/>
                </mxCell>
                <mxCell id="4" value="&lt;font style=&quot;font-size: 18px;&quot;&gt;住戶&lt;/font&gt;" style="rounded=0;whiteSpace=wrap;html=1;" vertex="1" parent="1">
                    <mxGeometry x="319" y="130" width="135" height="39" as="geometry"/>
                </mxCell>
                <mxCell id="6" value="&lt;span style=&quot;font-size: 14px;&quot;&gt;新增公告&lt;/span&gt;&lt;br style=&quot;font-size: 14px;&quot;&gt;&lt;span style=&quot;font-size: 14px;&quot;&gt;修改公告&lt;/span&gt;&lt;br style=&quot;font-size: 14px;&quot;&gt;&lt;span style=&quot;font-size: 14px;&quot;&gt;刪除公告&lt;/span&gt;" style="rounded=0;whiteSpace=wrap;html=1;fontSize=18;fillColor=none;" vertex="1" parent="1">
                    <mxGeometry x="565" y="559" width="136" height="123" as="geometry"/>
                </mxCell>
                <mxCell id="7" value="&lt;font style=&quot;font-size: 18px;&quot;&gt;委員&lt;/font&gt;" style="rounded=0;whiteSpace=wrap;html=1;" vertex="1" parent="1">
                    <mxGeometry x="565" y="520" width="136" height="39" as="geometry"/>
                </mxCell>
                <mxCell id="8" value="&lt;font style=&quot;font-size: 15px;&quot;&gt;收件時間&lt;br&gt;住戶姓名&lt;br&gt;幾號幾樓&lt;br&gt;&lt;br&gt;&lt;/font&gt;" style="rounded=0;whiteSpace=wrap;html=1;fontSize=18;fillColor=none;verticalAlign=bottom;" vertex="1" parent="1">
                    <mxGeometry x="80" y="398" width="136" height="134" as="geometry"/>
                </mxCell>
                <mxCell id="9" value="&lt;font style=&quot;font-size: 18px;&quot;&gt;APP&lt;/font&gt;" style="rounded=0;whiteSpace=wrap;html=1;" vertex="1" parent="1">
                    <mxGeometry x="80" y="398" width="136" height="39" as="geometry"/>
                </mxCell>
                <mxCell id="25" value="" style="endArrow=none;html=1;fontSize=16;entryX=0.5;entryY=1;entryDx=0;entryDy=0;exitX=0.5;exitY=0;exitDx=0;exitDy=0;" edge="1" parent="1" source="9" target="3">
                    <mxGeometry width="50" height="50" relative="1" as="geometry">
                        <mxPoint x="116" y="354" as="sourcePoint"/>
                        <mxPoint x="166" y="304" as="targetPoint"/>
                    </mxGeometry>
                </mxCell>
                <mxCell id="26" value="1" style="edgeLabel;html=1;align=center;verticalAlign=middle;resizable=0;points=[];fontSize=16;" vertex="1" connectable="0" parent="1">
                    <mxGeometry x="162" y="288" as="geometry">
                        <mxPoint x="2" y="2" as="offset"/>
                    </mxGeometry>
                </mxCell>
                <mxCell id="28" value="傳送" style="edgeLabel;html=1;align=center;verticalAlign=middle;resizable=0;points=[];fontSize=16;" vertex="1" connectable="0" parent="1">
                    <mxGeometry x="249.00122062442404" y="348.0017818364107" as="geometry">
                        <mxPoint x="-125" y="1" as="offset"/>
                    </mxGeometry>
                </mxCell>
                <mxCell id="29" value="" style="triangle;whiteSpace=wrap;html=1;fontSize=16;fillColor=none;" vertex="1" parent="1">
                    <mxGeometry x="125.5" y="316" width="11" height="13" as="geometry"/>
                </mxCell>
                <mxCell id="40" value="1..*" style="edgeLabel;html=1;align=center;verticalAlign=middle;resizable=0;points=[];fontSize=16;" vertex="1" connectable="0" parent="1">
                    <mxGeometry x="304.00049598965734" y="237.99860358656355" as="geometry">
                        <mxPoint x="-4" y="1" as="offset"/>
                    </mxGeometry>
                </mxCell>
                <mxCell id="42" value="發佈者&lt;br style=&quot;font-size: 15px;&quot;&gt;內容&lt;br&gt;回應者" style="rounded=0;whiteSpace=wrap;html=1;fontSize=15;fillColor=none;" vertex="1" parent="1">
                    <mxGeometry x="319" y="529" width="134" height="76" as="geometry"/>
                </mxCell>
                <mxCell id="43" value="&lt;font style=&quot;font-size: 18px;&quot;&gt;公告&lt;/font&gt;" style="rounded=0;whiteSpace=wrap;html=1;" vertex="1" parent="1">
                    <mxGeometry x="319" y="490" width="134" height="39" as="geometry"/>
                </mxCell>
                <mxCell id="51" value="綁定手機&lt;br&gt;回應公告&lt;br&gt;發起討論" style="rounded=0;whiteSpace=wrap;html=1;fontSize=14;fillColor=none;" vertex="1" parent="1">
                    <mxGeometry x="319" y="275" width="135" height="67" as="geometry"/>
                </mxCell>
                <mxCell id="53" value="&#10;&lt;span style=&quot;color: rgb(240, 240, 240); font-family: Helvetica; font-size: 15px; font-style: normal; font-variant-ligatures: normal; font-variant-caps: normal; font-weight: 400; letter-spacing: normal; orphans: 2; text-align: center; text-indent: 0px; text-transform: none; widows: 2; word-spacing: 0px; -webkit-text-stroke-width: 0px; background-color: rgb(42, 37, 47); text-decoration-thickness: initial; text-decoration-style: initial; text-decoration-color: initial; float: none; display: inline !important;&quot;&gt;推播簡訊&lt;/span&gt;&#10;&#10;" style="rounded=0;whiteSpace=wrap;html=1;fontSize=14;fillColor=none;" vertex="1" parent="1">
                    <mxGeometry x="80" y="532" width="136" height="46" as="geometry"/>
                </mxCell>
                <mxCell id="56" value="1" style="edgeLabel;html=1;align=center;verticalAlign=middle;resizable=0;points=[];fontSize=16;" vertex="1" connectable="0" parent="1">
                    <mxGeometry x="167" y="306" as="geometry">
                        <mxPoint x="-2" y="79" as="offset"/>
                    </mxGeometry>
                </mxCell>
                <mxCell id="57" value="" style="endArrow=none;html=1;fontSize=16;entryX=0;entryY=0.5;entryDx=0;entryDy=0;exitX=1;exitY=0.5;exitDx=0;exitDy=0;" edge="1" parent="1" source="8" target="5">
                    <mxGeometry width="50" height="50" relative="1" as="geometry">
                        <mxPoint x="258" y="401" as="sourcePoint"/>
                        <mxPoint x="264" y="278" as="targetPoint"/>
                        <Array as="points">
                            <mxPoint x="261" y="465"/>
                            <mxPoint x="261" y="221"/>
                        </Array>
                    </mxGeometry>
                </mxCell>
                <mxCell id="58" value="" style="triangle;whiteSpace=wrap;html=1;fontSize=16;fillColor=none;" vertex="1" parent="1">
                    <mxGeometry x="238" y="318" width="11" height="13" as="geometry"/>
                </mxCell>
                <mxCell id="59" value="接收" style="edgeLabel;html=1;align=center;verticalAlign=middle;resizable=0;points=[];fontSize=16;" vertex="1" connectable="0" parent="1">
                    <mxGeometry x="362.00122062442404" y="350.0017818364107" as="geometry">
                        <mxPoint x="-125" y="1" as="offset"/>
                    </mxGeometry>
                </mxCell>
                <mxCell id="60" value="1" style="edgeLabel;html=1;align=center;verticalAlign=middle;resizable=0;points=[];fontSize=16;" vertex="1" connectable="0" parent="1">
                    <mxGeometry x="230" y="372" as="geometry">
                        <mxPoint x="-2" y="79" as="offset"/>
                    </mxGeometry>
                </mxCell>
                <mxCell id="61" value="新增公告&lt;br&gt;修改公告&lt;br&gt;刪除公告&lt;br&gt;回應公告" style="rounded=0;whiteSpace=wrap;html=1;fontSize=14;fillColor=none;" vertex="1" parent="1">
                    <mxGeometry x="319" y="605" width="134" height="77" as="geometry"/>
                </mxCell>
                <mxCell id="62" value="" style="endArrow=none;html=1;fontSize=16;entryX=0.5;entryY=1;entryDx=0;entryDy=0;exitX=0.5;exitY=0;exitDx=0;exitDy=0;" edge="1" parent="1" source="43">
                    <mxGeometry width="50" height="50" relative="1" as="geometry">
                        <mxPoint x="386" y="465" as="sourcePoint"/>
                        <mxPoint x="387" y="342" as="targetPoint"/>
                    </mxGeometry>
                </mxCell>
                <mxCell id="63" value="" style="triangle;whiteSpace=wrap;html=1;fontSize=16;fillColor=none;" vertex="1" parent="1">
                    <mxGeometry x="362" y="403" width="11" height="13" as="geometry"/>
                </mxCell>
                <mxCell id="64" value="回應" style="edgeLabel;html=1;align=center;verticalAlign=middle;resizable=0;points=[];fontSize=16;" vertex="1" connectable="0" parent="1">
                    <mxGeometry x="484.00122062442404" y="433.0017818364107" as="geometry">
                        <mxPoint x="-125" y="1" as="offset"/>
                    </mxGeometry>
                </mxCell>
                <mxCell id="65" value="1..*" style="edgeLabel;html=1;align=center;verticalAlign=middle;resizable=0;points=[];fontSize=16;" vertex="1" connectable="0" parent="1">
                    <mxGeometry x="410.00049598965734" y="471.99860358656355" as="geometry">
                        <mxPoint x="-4" y="1" as="offset"/>
                    </mxGeometry>
                </mxCell>
                <mxCell id="66" value="1" style="edgeLabel;html=1;align=center;verticalAlign=middle;resizable=0;points=[];fontSize=16;" vertex="1" connectable="0" parent="1">
                    <mxGeometry x="403" y="277" as="geometry">
                        <mxPoint x="-2" y="79" as="offset"/>
                    </mxGeometry>
                </mxCell>
                <mxCell id="67" value="" style="endArrow=none;html=1;fontSize=15;exitX=1;exitY=0.75;exitDx=0;exitDy=0;" edge="1" parent="1" source="42">
                    <mxGeometry width="50" height="50" relative="1" as="geometry">
                        <mxPoint x="479" y="624" as="sourcePoint"/>
                        <mxPoint x="566" y="586" as="targetPoint"/>
                    </mxGeometry>
                </mxCell>
                <mxCell id="68" value="1..*" style="edgeLabel;html=1;align=center;verticalAlign=middle;resizable=0;points=[];fontSize=16;" vertex="1" connectable="0" parent="1">
                    <mxGeometry x="477.00049598965734" y="566.9986035865636" as="geometry">
                        <mxPoint x="-4" y="1" as="offset"/>
                    </mxGeometry>
                </mxCell>
                <mxCell id="69" value="" style="triangle;whiteSpace=wrap;html=1;fontSize=16;fillColor=none;rotation=-90;" vertex="1" parent="1">
                    <mxGeometry x="504" y="598" width="11" height="13" as="geometry"/>
                </mxCell>
                <mxCell id="70" value="發佈" style="edgeLabel;html=1;align=center;verticalAlign=middle;resizable=0;points=[];fontSize=16;" vertex="1" connectable="0" parent="1">
                    <mxGeometry x="633.001220624424" y="627.0017818364107" as="geometry">
                        <mxPoint x="-125" y="1" as="offset"/>
                    </mxGeometry>
                </mxCell>
                <mxCell id="71" value="1" style="edgeLabel;html=1;align=center;verticalAlign=middle;resizable=0;points=[];fontSize=16;" vertex="1" connectable="0" parent="1">
                    <mxGeometry x="550" y="490" as="geometry">
                        <mxPoint x="-2" y="79" as="offset"/>
                    </mxGeometry>
                </mxCell>
                <mxCell id="74" value="&lt;font style=&quot;font-size: 15px;&quot;&gt;手機號碼&lt;br&gt;綁定狀態&lt;br&gt;&lt;/font&gt;" style="rounded=0;whiteSpace=wrap;html=1;fontSize=18;fillColor=none;" vertex="1" parent="1">
                    <mxGeometry x="562" y="167" width="132" height="106" as="geometry"/>
                </mxCell>
                <mxCell id="75" value="&lt;font style=&quot;font-size: 18px;&quot;&gt;手機&lt;/font&gt;" style="rounded=0;whiteSpace=wrap;html=1;" vertex="1" parent="1">
                    <mxGeometry x="562" y="130" width="132" height="39" as="geometry"/>
                </mxCell>
                <mxCell id="76" value="" style="endArrow=none;html=1;fontSize=15;exitX=1;exitY=0.75;exitDx=0;exitDy=0;" edge="1" parent="1">
                    <mxGeometry width="50" height="50" relative="1" as="geometry">
                        <mxPoint x="454" y="208" as="sourcePoint"/>
                        <mxPoint x="562" y="208" as="targetPoint"/>
                    </mxGeometry>
                </mxCell>
                <mxCell id="77" value="" style="triangle;whiteSpace=wrap;html=1;fontSize=16;fillColor=none;rotation=-90;" vertex="1" parent="1">
                    <mxGeometry x="504" y="223.5" width="11" height="13" as="geometry"/>
                </mxCell>
                <mxCell id="78" value="綁定" style="edgeLabel;html=1;align=center;verticalAlign=middle;resizable=0;points=[];fontSize=16;" vertex="1" connectable="0" parent="1">
                    <mxGeometry x="633.001220624424" y="252.50178183641071" as="geometry">
                        <mxPoint x="-125" y="1" as="offset"/>
                    </mxGeometry>
                </mxCell>
                <mxCell id="79" value="1" style="edgeLabel;html=1;align=center;verticalAlign=middle;resizable=0;points=[];fontSize=16;" vertex="1" connectable="0" parent="1">
                    <mxGeometry x="469" y="115" as="geometry">
                        <mxPoint x="-2" y="79" as="offset"/>
                    </mxGeometry>
                </mxCell>
                <mxCell id="80" value="2" style="edgeLabel;html=1;align=center;verticalAlign=middle;resizable=0;points=[];fontSize=16;" vertex="1" connectable="0" parent="1">
                    <mxGeometry x="422.00049598965734" y="485.99860358656355" as="geometry">
                        <mxPoint x="127" y="-291" as="offset"/>
                    </mxGeometry>
                </mxCell>
            </root>
        </mxGraphModel>
    </diagram>
</mxfile>